<svg width="20" height="23" viewBox="0 0 20 23" fill="none" xmlns="http://www.w3.org/2000/svg">
<path d="M14.0575 4.81152L13.3748 3.40325C12.9213 2.46778 12.6946 2.00004 12.3035 1.70833C12.2167 1.64362 12.1249 1.58607 12.0288 1.53622C11.5957 1.31152 11.0759 1.31152 10.0363 1.31152C8.97059 1.31152 8.43775 1.31152 7.99745 1.54564C7.89986 1.59753 7.80675 1.65742 7.71906 1.72469C7.3234 2.02822 7.10239 2.51308 6.66037 3.48278L6.05469 4.81152H14.0575Z" fill="white"/>
<path d="M17.5 4.81152L16.8803 14.8366C16.7219 17.398 16.6428 18.6787 16.0008 19.5994C15.6833 20.0546 15.2747 20.4388 14.8007 20.7275C13.8421 21.3115 12.559 21.3115 9.99274 21.3115C7.42312 21.3115 6.1383 21.3115 5.17905 20.7265C4.7048 20.4372 4.296 20.0523 3.97868 19.5964C3.33688 18.6741 3.25945 17.3916 3.10461 14.8267L2.5 4.81152" stroke="#141B34" stroke-width="1.5" stroke-linecap="round"/>
<path d="M19 4.81152H1" stroke="#141B34" stroke-width="1.5" stroke-linecap="round"/>
<path d="M14.0575 4.81152L13.3748 3.40325C12.9213 2.46778 12.6946 2.00004 12.3035 1.70833C12.2167 1.64362 12.1249 1.58607 12.0288 1.53622C11.5957 1.31152 11.0759 1.31152 10.0363 1.31152C8.97059 1.31152 8.43775 1.31152 7.99745 1.54564C7.89986 1.59753 7.80675 1.65742 7.71906 1.72469C7.3234 2.02822 7.10239 2.51308 6.66037 3.48278L6.05469 4.81152" stroke="#141B34" stroke-width="1.5" stroke-linecap="round"/>
</svg>
